<svg width="18" height="18" viewBox="0 0 18 18" fill="none" xmlns="http://www.w3.org/2000/svg">
<path d="M9 2.20001C11.2 2.20001 11.5 2.20001 12.4 2.20001C13.2 2.20001 13.6 2.40001 13.9 2.50001C14.3 2.70001 14.6 2.80001 14.9 3.10001C15.2 3.40001 15.4 3.70001 15.5 4.10001C15.6 4.40001 15.7 4.80001 15.8 5.60001C15.8 6.50001 15.8 6.70001 15.8 9.00001C15.8 11.3 15.8 11.5 15.8 12.4C15.8 13.2 15.6 13.6 15.5 13.9C15.3 14.3 15.2 14.6 14.9 14.9C14.6 15.2 14.3 15.4 13.9 15.5C13.6 15.6 13.2 15.7 12.4 15.8C11.5 15.8 11.3 15.8 9 15.8C6.7 15.8 6.5 15.8 5.6 15.8C4.8 15.8 4.4 15.6 4.1 15.5C3.7 15.3 3.4 15.2 3.1 14.9C2.8 14.6 2.6 14.3 2.5 13.9C2.4 13.6 2.3 13.2 2.2 12.4C2.2 11.5 2.2 11.3 2.2 9.00001C2.2 6.70001 2.2 6.50001 2.2 5.60001C2.2 4.80001 2.4 4.40001 2.5 4.10001C2.7 3.70001 2.8 3.40001 3.1 3.10001C3.4 2.80001 3.7 2.60001 4.1 2.50001C4.4 2.40001 4.8 2.30001 5.6 2.20001C6.5 2.20001 6.8 2.20001 9 2.20001ZM9 0.700012C6.7 0.700012 6.5 0.700012 5.6 0.700012C4.7 0.700012 4.1 0.900013 3.6 1.10001C3.1 1.30001 2.6 1.60001 2.1 2.10001C1.6 2.60001 1.4 3.00001 1.1 3.60001C0.899998 4.10001 0.799997 4.70001 0.699997 5.60001C0.699997 6.50001 0.699997 6.80001 0.699997 9.00001C0.699997 11.3 0.699997 11.5 0.699997 12.4C0.699997 13.3 0.899998 13.9 1.1 14.4C1.3 14.9 1.6 15.4 2.1 15.9C2.6 16.4 3 16.6 3.6 16.9C4.1 17.1 4.7 17.2 5.6 17.3C6.5 17.3 6.8 17.3 9 17.3C11.2 17.3 11.5 17.3 12.4 17.3C13.3 17.3 13.9 17.1 14.4 16.9C14.9 16.7 15.4 16.4 15.9 15.9C16.4 15.4 16.6 15 16.9 14.4C17.1 13.9 17.2 13.3 17.3 12.4C17.3 11.5 17.3 11.2 17.3 9.00001C17.3 6.80001 17.3 6.50001 17.3 5.60001C17.3 4.70001 17.1 4.10001 16.9 3.60001C16.7 3.10001 16.4 2.60001 15.9 2.10001C15.4 1.60001 15 1.40001 14.4 1.10001C13.9 0.900013 13.3 0.800012 12.4 0.700012C11.5 0.700012 11.3 0.700012 9 0.700012Z" fill="white"/>
<path d="M9 4.70001C6.6 4.70001 4.7 6.60001 4.7 9.00001C4.7 11.4 6.6 13.3 9 13.3C11.4 13.3 13.3 11.4 13.3 9.00001C13.3 6.60001 11.4 4.70001 9 4.70001ZM9 11.8C7.5 11.8 6.2 10.6 6.2 9.00001C6.2 7.50001 7.4 6.20001 9 6.20001C10.5 6.20001 11.8 7.40001 11.8 9.00001C11.8 10.5 10.5 11.8 9 11.8Z" fill="white"/>
<path d="M13.4 5.60001C13.9523 5.60001 14.4 5.1523 14.4 4.60001C14.4 4.04773 13.9523 3.60001 13.4 3.60001C12.8477 3.60001 12.4 4.04773 12.4 4.60001C12.4 5.1523 12.8477 5.60001 13.4 5.60001Z" fill="white"/>
</svg>
